<svg xmlns="http://www.w3.org/2000/svg" viewBox="0 0 24 24" fill="currentColor" class="chatbot-icon">
  <!-- 챗봇 머리 -->
  <path d="M12 2C8.13 2 5 5.13 5 9c0 2.38 1.19 4.47 3 5.74V17c0 .55.45 1 1 1h6c.55 0 1-.45 1-1v-2.26c1.81-1.27 3-3.36 3-5.74 0-3.87-3.13-7-7-7z" fill="#4F46E5"/>
  
  <!-- 챗봇 얼굴 -->
  <!-- 왼쪽 눈 -->
  <circle cx="9.5" cy="8.5" r="1" fill="#FFFFFF"/>
  <!-- 오른쪽 눈 -->
  <circle cx="14.5" cy="8.5" r="1" fill="#FFFFFF"/>
  
  <!-- 입 -->
  <path d="M9 12h6c.55 0 1-.45 1-1s-.45-1-1-1H9c-.55 0-1 .45-1 1s.45 1 1 1z" fill="#FFFFFF"/>
  
  <!-- 챗봇 안테나 -->
  <circle cx="12" cy="1" r="1" fill="#4F46E5"/>
  <line x1="12" y1="2" x2="12" y2="3" stroke="#4F46E5" stroke-width="2"/>
  
  <!-- 챗봇 바디/메시지 박스 -->
  <path d="M6 18c-1.1 0-2 .9-2 2v1c0 .55.45 1 1 1h14c.55 0 1-.45 1-1v-1c0-1.1-.9-2-2-2H6z" fill="#6B7280"/>
  
  <!-- 메시지 인디케이터 점들 -->
  <circle cx="8" cy="20" r="0.8" fill="#FFFFFF"/>
  <circle cx="12" cy="20" r="0.8" fill="#FFFFFF"/>
  <circle cx="16" cy="20" r="0.8" fill="#FFFFFF"/>
</svg>